Coordinates
version=1
nRows=7
nColumns=63
inDegrees=yes

Units are S.I. units (second, meters, Newtons, ...)
If the header above contains a line with 'inDegrees', this indicates whether rotational values are in degrees (yes) or radians (no).

endheader
time	pelvis_tilt	pelvis_list	pelvis_rotation	pelvis_tx	pelvis_ty	pelvis_tz	hip_flexion_r	hip_adduction_r	hip_rotation_r	knee_angle_r	knee_angle_r_beta	ankle_angle_r	subtalar_angle_r	mtp_angle_r	hip_flexion_l	hip_adduction_l	hip_rotation_l	knee_angle_l	knee_angle_l_beta	ankle_angle_l	subtalar_angle_l	mtp_angle_l	L5_S1_Flex_Ext	L5_S1_Lat_Bending	L5_S1_axial_rotation	L4_L5_Flex_Ext	L4_L5_Lat_Bending	L4_L5_axial_rotation	L3_L4_Flex_Ext	L3_L4_Lat_Bending	L3_L4_axial_rotation	L2_L3_Flex_Ext	L2_L3_Lat_Bending	L2_L3_axial_rotation	L1_L2_Flex_Ext	L1_L2_Lat_Bending	L1_L2_axial_rotation	L1_T12_Flex_Ext	L1_T12_Lat_Bending	L1_T12_axial_rotation	Abs_r3	Abs_r2	Abs_r1	Abs_t1	Abs_t2	neck_flexion	neck_bending	neck_rotation	arm_flex_r	arm_add_r	arm_rot_r	elbow_flex_r	pro_sup_r	wrist_flex_r	wrist_dev_r	arm_flex_l	arm_add_l	arm_rot_l	elbow_flex_l	pro_sup_l	wrist_flex_l	wrist_dev_l
      2.82142857	      3.50111120	     -2.91420284	     98.52697360	      0.16003503	      1.02413691	      0.11446197	     -0.91649925	      4.51819101	      1.36008985	      0.84445637	      0.01473854	     25.16273570	    -12.46334819	      0.00000000	      0.71414096	     -0.94039536	     18.22896348	      1.63901596	      0.02860622	     25.31953016	    -16.72992531	      0.00000000	      0.18143047	      0.61193547	     -1.21082735	      0.33693452	      0.81387418	     -1.28650406	      0.29807212	      1.48785991	     -1.28650406	      0.20735688	      1.48785991	     -1.05947393	      0.16847633	      1.24785881	     -0.98379722	      0.10366937	      0.94788805	     -0.90812051	      1.29593969	      6.92233645	     -6.73425848	      0.00000000	      0.00000000	     25.62363341	      0.61038298	     11.24969820	     25.49982233	     -7.03513060	     98.07654925	     38.77162858	     52.72361897	      6.10979441	      4.17473333	     15.48746610	     -7.42597756	     64.15616109	     42.92746673	     45.91576351	     -0.99272747	      4.62649459
      2.83928571	      3.48522484	     -3.02850994	     98.56296786	      0.16027667	      1.02404192	      0.11463867	     -0.78250868	      4.50057961	      1.16969926	      0.84862557	      0.01481131	     25.12953032	    -12.35246500	      0.00000000	      0.86407790	     -0.91504418	     18.21018162	      1.67372355	      0.02921199	     25.18742457	    -16.76985198	      0.00000000	      0.17217948	      0.60842185	     -1.21978580	      0.31975451	      0.80920106	     -1.29602242	      0.28287367	      1.47931688	     -1.29602242	      0.19678393	      1.47931688	     -1.06731258	      0.15988586	      1.24069383	     -0.99107597	      0.09838335	      0.94244544	     -0.91483935	      1.22986080	      6.88258963	     -6.78408271	      0.00000000	      0.00000000	     25.95276720	      1.02509344	     12.06794215	     25.36377267	     -7.04142925	     97.74676189	     38.70951824	     53.91958361	      6.14183458	      4.06890122	     15.50106407	     -7.41644448	     63.59411538	     42.93294873	     47.58657715	     -1.16672493	      4.47746980
      2.85714286	      3.44711651	     -3.11198608	     98.57343995	      0.16052040	      1.02397302	      0.11471372	     -0.69475651	      4.46617854	      1.11570093	      0.84099835	      0.01467819	     25.09367662	    -12.34941531	      0.00000000	      0.96690266	     -0.87685758	     18.21475520	      1.69451882	      0.02957493	     25.15835446	    -16.75190978	      0.00000000	      0.16443179	      0.60271478	     -1.22972797	      0.30536627	      0.80161066	     -1.30658597	      0.27014498	      1.46544072	     -1.30658597	      0.18792909	      1.46544072	     -1.07601197	      0.15269136	      1.22905599	     -0.99915398	      0.09395632	      0.93360520	     -0.92229598	      1.17451980	      6.81803017	     -6.83937805	      0.00000000	      0.00000000	     26.20005203	      1.36069492	     12.82933721	     25.47046901	     -7.00138965	     98.34234256	     38.73438779	     53.95486100	      5.78528755	      3.71459506	     15.52441676	     -7.48084316	     63.28795131	     43.01566314	     48.52640759	     -1.30075915	      4.09931453
      2.87500000	      3.38973450	     -3.03490211	     98.61316637	      0.16070320	      1.02415405	      0.11494040	     -0.73725367	      4.40233704	     -1.97669194	      0.91681425	      0.01600143	     26.18389514	     -7.96704655	      0.00000000	      0.97830381	     -0.86818069	     15.45780406	      1.81268745	      0.03163736	     26.29775021	    -12.70745715	      0.00000000	      0.13457880	      0.59074314	     -1.21948300	      0.24992629	      0.78568838	     -1.29570069	      0.22109951	      1.43633287	     -1.29570069	      0.15381011	      1.43633287	     -1.06704763	      0.12496987	      1.20464341	     -0.99082994	      0.07689833	      0.91506112	     -0.91461225	      0.96128290	      6.68260455	     -6.78239861	      0.00000000	      0.00000000	     26.52231914	      1.36553200	     12.59989089	     25.45175369	     -7.06028793	     98.45560755	     38.87786479	     52.35056636	      5.44157341	      3.85437309	     15.69469550	     -7.52689483	     63.31576705	     43.12958343	     48.12958265	     -1.60062840	      4.08599185
      2.89285714	      3.26536230	     -3.23646768	     98.68497788	      0.16089969	      1.02388272	      0.11514915	     -0.57075834	      4.29377407	      1.03181918	      0.80338150	      0.01402165	     25.20645613	    -12.25698562	      0.00000000	      1.14791224	     -0.69466355	     18.47542699	      1.66644224	      0.02908490	     25.08936697	    -16.78990536	      0.00000000	      0.16228104	      0.56902624	     -1.24290661	      0.30137213	      0.75680490	     -1.32058827	      0.26661153	      1.38353040	     -1.32058827	      0.18547100	      1.38353040	     -1.08754328	      0.15069418	      1.16035831	     -1.00986162	      0.09272739	      0.88142165	     -0.93217996	      1.15915727	      6.43693865	     -6.91267369	      0.00000000	      0.00000000	     26.41179712	      1.71371632	     12.89644940	     25.40570263	     -6.89711293	     98.58623288	     38.71886498	     53.24221812	      5.41288599	      3.52007858	     15.55526200	     -7.60406682	     62.71438464	     43.04915796	     49.64980098	     -1.19581303	      3.90540568
      2.91071429	      3.20285767	     -3.25659090	     98.81197586	      0.16092355	      1.02385095	      0.11554022	     -0.53007977	      4.23303550	      0.56519509	      0.79976376	      0.01395851	     25.52680887	    -11.48783683	      0.00000000	      1.23680908	     -0.62785234	     18.70748212	      1.69435588	      0.02957209	     25.10148880	    -16.83051006	      0.00000000	      0.16243580	      0.55652569	     -1.26223128	      0.30165952	      0.74017917	     -1.34112073	      0.26686577	      1.35313656	     -1.34112073	      0.18564787	      1.35313656	     -1.10445237	      0.15083788	      1.13486718	     -1.02556291	      0.09281581	      0.86205829	     -0.94667346	      1.16026265	      6.29552990	     -7.02015171	      0.00000000	      0.00000000	     26.40507460	      1.73830722	     12.68657046	     25.48212322	     -6.87879925	     98.87442443	     38.77349096	     53.26223176	      4.87174839	      2.94943809	     15.65851598	     -7.64151939	     62.72976194	     42.88419008	     49.90071005	     -0.89119574	      3.65917670
      2.92857143	      3.10127384	     -3.27061278	     98.75197329	      0.16121163	      1.02378991	      0.11585084	     -0.50914880	      4.14309921	      1.41052346	      0.76496162	      0.01335110	     25.44885280	    -12.34525335	      0.00000000	      1.25192893	     -0.52560411	     18.69836110	      1.70771688	      0.02980528	     25.06978909	    -16.79901237	      0.00000000	      0.16062853	      0.53902081	     -1.24261647	      0.29830324	      0.71689768	     -1.32028000	      0.26389661	      1.31057520	     -1.32028000	      0.18358234	      1.31057520	     -1.08728941	      0.14915965	      1.09917124	     -1.00962589	      0.09178314	      0.83494323	     -0.93196236	      1.14735350	      6.09751121	     -6.91106004	      0.00000000	      0.00000000	     26.38192680	      1.73081472	     12.35102663	     25.44156880	     -6.95177676	     98.48219233	     38.95732629	     53.28583915	      4.53450003	      2.85582974	     15.77789861	     -7.70579047	     62.64267831	     42.80375662	     51.17073889	     -0.51603666	      3.96818617
